# xmcd
#
# Track frame offsets:
#  150
#  14476
#  28493
#  41551
#  54669
#  67325
#  79993
#  91394
#  107282
#  122566
#  138016
#  152637
#  167259
#  180968
#  192830
#  206658
#  219420
#  231922
#  245727
#  259057
#  271096
#
# Disc length: 3767 seconds
#
# Revision: 1
# Processed by: cddbd v1.5.1PL2 Copyright (c) Steve Scherf et al.
# Submitted via: Collectorz.com_Music_Collector 6.10
#
DISCID=220eb515
DTITLE=Fletcher Henderson - Wrappin' It Up [CD3)
DYEAR=2005
DGENRE=Pop Classic Band
TTITLE0=Honeysuckle Rose
TTITLE1=New King Porter Stomp
TTITLE2=Yeah Man!
TTITLE3=King Porter's Stomp
TTITLE4=Queer Notions
TTITLE5=Can You Take It?
TTITLE6=Queer Notions
TTITLE7=It's the Talk of the Town
TTITLE8=Night Life
TTITLE9=Nagasaki
TTITLE10=Hocus Pocus
TTITLE11=Phantom Fantasy
TTITLE12=Tidal Wave
TTITLE13=Limehouse Blues
TTITLE14=Shanghai Shuffle
TTITLE15=Big (John's Special)
TTITLE16=Happy As the Day Is Long
TTITLE17=Tidal Wave
TTITLE18=Down South Camp Meetin'
TTITLE19=Wrappin' It Up
TTITLE20=Memphis Blues
EXTD=
EXTT0=
EXTT1=
EXTT2=
EXTT3=
EXTT4=
EXTT5=
EXTT6=
EXTT7=
EXTT8=
EXTT9=
EXTT10=
EXTT11=
EXTT12=
EXTT13=
EXTT14=
EXTT15=
EXTT16=
EXTT17=
EXTT18=
EXTT19=
EXTT20=
PLAYORDER=
